<?xml version="1.0" standalone="yes"?>

<!-- 
COLOR:  .button.fill = [blue, yellow, green, red]
SHAPE:  [circle, square, triangle, ellipse].display = ["inherit", "none"] 
HOLES:  [one, two, three, four].display = ["inherit", "none"] 
-->

<svg height="1000" width="1000" viewbox="0 0 1000 1000" xmlns="http://www.w3.org/2000/svg">
<style>
.button {
fill:blue;
stroke-width:5;
stroke:black;

}

</style>
  
 <g id="circle" display="none">
  <circle cx="500" cy="500" r="300" class="button" />
  <circle cx="500" cy="500" r="250" class="button" />
 </g>

 <g id="square" display="none">
  <rect x="250" y="250" rx="20" ry="20" width="500" height="500" class="button" />
  <rect x="300" y="300" rx="20" ry="20" width="400" height="400" class="button" />
 </g>

 <g id="triangle" display="inherit">
  <polygon points="500,50 113.4,700 886.6,700" stroke-linejoin="round" class="button" />
  <polygon points="500,150 200,650 800,650" stroke-linejoin="round" class="button" />
 </g>

 <g id="ellipse" display="none">
  <ellipse cx="500" cy="500" rx="400" ry="250" class="button"/>
  <ellipse cx="500" cy="500" rx="350" ry="200" class="button"/>
 </g>


 <g id="one" display="none"> 
  <circle cx="500" cy="500" r="40" stroke="black" fill="black"/>
 </g>

 <g id="two" display="inherit"> 
  <circle cx="570" cy="500" r="40" stroke="black" fill="black"/>
  <circle cx="430" cy="500" r="40" stroke="black" fill="black"/>
 </g>

<g id="three" display="none"> 
  <circle cx="570" cy="560" r="40" stroke="black" fill="black"/>
  <circle cx="430" cy="560" r="40" stroke="black" fill="black"/>
  <circle cx="500" cy="440" r="40" stroke="black" fill="black"/>
 </g> 

<g id="four" display="none"> 
  <circle cx="570" cy="430" r="40" stroke="black" fill="black"/>
  <circle cx="430" cy="430" r="40" stroke="black" fill="black"/>
  <circle cx="570" cy="570" r="40" stroke="black" fill="black"/>
  <circle cx="430" cy="570" r="40" stroke="black" fill="black"/> 
</g> 

Sorry, your browser does not support inline SVG.  
</svg> 