<?xml version="1.0" standalone="yes"?>
    
    <svg height="1000" width="1000" viewbox="0 0 1000 1000" xmlns="http://www.w3.org/2000/svg">
    <defs>
            <pattern id="stripe" patternUnits="userSpaceOnUse" width="20%" height="20%">
                <path stroke="seagreen" stroke-linecap="butt" stroke-width="50" d="M -20 -20 l1000 1000"/>
                <path stroke="seagreen" stroke-linecap="butt" stroke-width="50" d="M -20 180 l1000 1000"/>
                <path stroke="seagreen" stroke-linecap="butt" stroke-width="50" d="M -20 -220 l1000 1000"/>
    
            </pattern>
            <pattern id="dotted" enable-background="true" patternUnits="userSpaceOnUse" width="15%" height="15%">
                <circle cx="30" cy="30" r="25" fill="seagreen" />
                <circle cx="105" cy="105" r="25" fill="seagreen" />
            </pattern>
            <style>
            .button {
    
            stroke-width:5;
            stroke:black;
    
            }
        </style>
        </defs>
    
     <g id="circle" display="none">
         <circle cx="500" cy="500" r="300" class="button" fill="lime"/>
         <circle cx="500" cy="500" r="300" class="button" fill="url(#stripe)"/>
         <circle cx="500" cy="500" r="250" class="button" fill="none"/>
     </g>
    
     <g id="square" display="none">
      <rect x="250" y="250" rx="20" ry="20" width="500" height="500" class="button" fill="lime"/>
      <rect x="250" y="250" rx="20" ry="20" width="500" height="500" class="button" fill="url(#stripe)"/>
      <rect x="300" y="300" rx="20" ry="20" width="400" height="400" class="button" fill="none"/>
     </g>
    
     <g id="triangle" display="none">
      <polygon points="500,50 113.4,700 886.6,700" stroke-linejoin="round" class="button" fill="lime" />
      <polygon points="500,50 113.4,700 886.6,700" stroke-linejoin="round" class="button" fill="url(#stripe)" />
      <polygon points="500,150 200,650 800,650" stroke-linejoin="round" class="button" fill="none"/>
     </g>
    
     <g id="ellipse" display="inherit">
      <ellipse cx="500" cy="500" rx="400" ry="250" class="button" fill="lime" />
      <ellipse cx="500" cy="500" rx="400" ry="250" class="button" fill="url(#stripe)" />
      <ellipse cx="500" cy="500" rx="350" ry="200" class="button" fill="none" />
     </g>
     <g id="octagon" display="none">
      <polygon points="400,250 600,250 750,400 750,600 600,750 400,750 250,600 250,400" stroke-linejoin="round" class="button" fill="lime" />
      <polygon points="400,250 600,250 750,400 750,600 600,750 400,750 250,600 250,400" stroke-linejoin="round" class="button" fill="url(#stripe)" />
      <polygon points="400,300 600,300 700,400 700,600 600,700 400,700 300,600 300,400" stroke-linejoin="round" class="button" fill="none"/>
     </g>
     
     <g id="rhombus" display="none">
      <polygon points="350,250 150,750 650,750 850,250" stroke-linejoin="round" class="button" fill="lime" />
      <polygon points="350,250 150,750 650,750 850,250" stroke-linejoin="round" class="button" fill="url(#stripe)" />
      <polygon points="390,300 230,700 620,700 770,300" stroke-linejoin="round" class="button" fill="none"/>
     </g>
    
    
     <g id="one" display="none"> 
      <circle cx="500" cy="500" r="40" stroke="black" fill="black"/>
     </g>
    
     <g id="two" display="inherit"> 
      <circle cx="570" cy="500" r="40" stroke="black" fill="black"/>
      <circle cx="430" cy="500" r="40" stroke="black" fill="black"/>
     </g>
    
    <g id="three" display="none"> 
      <circle cx="570" cy="560" r="40" stroke="black" fill="black"/>
      <circle cx="430" cy="560" r="40" stroke="black" fill="black"/>
      <circle cx="500" cy="440" r="40" stroke="black" fill="black"/>
     </g> 
    
    <g id="four" display="none"> 
      <circle cx="570" cy="430" r="40" stroke="black" fill="black"/>
      <circle cx="430" cy="430" r="40" stroke="black" fill="black"/>
      <circle cx="570" cy="570" r="40" stroke="black" fill="black"/>
      <circle cx="430" cy="570" r="40" stroke="black" fill="black"/> 
    </g> 
    <g id="five" display="none">
      <circle cx="570" cy="430" r="40" stroke="black" fill="black"/>
      <circle cx="430" cy="430" r="40" stroke="black" fill="black"/>
      <circle cx="570" cy="570" r="40" stroke="black" fill="black"/>
      <circle cx="430" cy="570" r="40" stroke="black" fill="black"/>
      <circle cx="500" cy="500" r="40" stroke="black" fill="black"/>
    </g>
    
    <g id="six" display="none">
      <circle cx="570" cy="400" r="40" stroke="black" fill="black"/>
      <circle cx="430" cy="400" r="40" stroke="black" fill="black"/>
      <circle cx="570" cy="600" r="40" stroke="black" fill="black"/>
      <circle cx="430" cy="600" r="40" stroke="black" fill="black"/>
      <circle cx="430" cy="500" r="40" stroke="black" fill="black"/>
      <circle cx="570" cy="500" r="40" stroke="black" fill="black"/>
    </g>
    
    Sorry, your browser does not support inline SVG.
    </svg>
    